# Blender v2.80 (sub 75) OBJ File: ''
# www.blender.org
mtllib APCDAM.mtl
o Cube.004_Cube.009
v 4.017705 0.121229 -1.549586
v 3.952955 0.367874 -1.438425
v -3.501528 -0.968957 -1.430660
v -3.501528 1.773964 -1.273250
v 3.907966 -0.968957 -1.430660
v 3.978742 1.814923 -1.362304
v -3.703611 0.121229 -1.549586
v -3.352327 0.367874 -1.438425
v -3.432702 1.362209 -1.438425
v -3.662112 1.486699 -1.273250
v -3.237728 1.804537 -1.362304
v 4.032776 1.461909 -1.438425
v -2.405650 -0.352606 -1.092885
v -2.928684 -0.654580 -1.092885
v -2.928684 -1.258527 -1.092885
v -2.405650 -1.560501 -1.092885
v -1.882616 -1.258527 -1.092885
v -1.882616 -0.654580 -1.092885
v -2.405650 -0.352605 -1.657760
v -2.928684 -0.654579 -1.657760
v -2.928684 -1.258527 -1.657760
v -2.405650 -1.560501 -1.657760
v -1.882616 -1.258527 -1.657760
v -1.882616 -0.654579 -1.657760
v -3.031824 -0.305650 -1.665038
v -3.031824 -1.699847 -1.665038
v -1.779475 -1.699847 -1.665038
v -1.779475 -0.305650 -1.665038
v 1.563511 -0.352606 -0.596324
v 1.040477 -0.654580 -0.596324
v 1.040477 -1.258527 -0.596324
v 1.563511 -1.560501 -0.596324
v 2.086545 -1.258527 -0.596324
v 2.086545 -0.654580 -0.596324
v 1.563511 -0.352605 -1.877670
v 1.040477 -0.654579 -1.877671
v 1.040477 -1.258527 -1.877671
v 1.563511 -1.560501 -1.877671
v 2.086545 -1.258527 -1.877671
v 2.086545 -0.654579 -1.877671
v 0.964133 -0.333780 -1.880125
v 0.964133 -1.668315 -1.880126
v 2.162890 -1.668315 -1.880126
v 2.162890 -0.333780 -1.880125
v 4.017705 0.121229 1.546570
v 3.952955 0.367874 1.435409
v -3.501528 -0.968957 1.427644
v -3.501528 1.773964 1.270235
v 3.907966 -0.968957 1.427644
v 3.978742 1.814923 1.359289
v -3.703611 0.121229 1.546570
v -3.352327 0.367874 1.435409
v -3.432702 1.362209 1.435409
v -3.662112 1.486699 1.270235
v -3.237728 1.804537 1.359289
v 4.032776 1.461908 1.435409
v -2.405650 -0.352606 1.089869
v -2.928684 -0.654580 1.089869
v -2.928684 -1.258528 1.089869
v -2.405650 -1.560502 1.089869
v -1.882616 -1.258528 1.089869
v -1.882616 -0.654580 1.089869
v -2.405650 -0.352606 1.654744
v -2.928684 -0.654580 1.654744
v -2.928684 -1.258528 1.654744
v -2.405650 -1.560502 1.654744
v -1.882616 -1.258528 1.654744
v -1.882616 -0.654580 1.654744
v -3.008620 -0.310916 1.662621
v -3.008620 -1.704673 1.662621
v -1.756666 -1.704673 1.662621
v -1.756666 -0.310916 1.662621
v 1.563511 -0.352606 0.593308
v 1.040477 -0.654580 0.593308
v 1.040477 -1.258528 0.593308
v 1.563511 -1.560502 0.593308
v 2.086545 -1.258528 0.593308
v 2.086545 -0.654580 0.593308
v 1.563511 -0.352606 1.874655
v 1.040477 -0.654580 1.874655
v 1.040477 -1.258528 1.874654
v 1.563511 -1.560502 1.874654
v 2.086545 -1.258528 1.874654
v 2.086545 -0.654580 1.874655
v 0.937337 -0.259455 1.888377
v 0.937337 -1.653653 1.888376
v 2.189686 -1.653653 1.888376
v 2.189686 -0.259455 1.888377
v -3.373711 -0.698986 -1.540411
v -3.373711 -0.698986 1.537395
v -3.831964 -0.698986 -1.540411
v -3.831964 -0.698986 1.537395
v -3.831964 -1.066072 -1.540411
v -3.831964 -1.066073 1.537395
v -3.300020 -1.066072 -1.540411
v -3.300020 -1.066073 1.537395
v -3.791620 -0.701672 -0.813183
v -3.791620 -0.701672 0.810167
v -3.974363 0.212533 -0.813183
v -3.974363 0.212532 0.810167
v -1.468265 2.418390 -0.378165
v -3.465724 2.415515 -0.378165
v -1.468265 2.418390 0.375150
v -3.465724 2.415515 0.375150
v -3.464123 1.754665 -0.583072
v -1.466664 1.757540 -0.583072
v -3.464123 1.754665 0.580057
v -1.466664 1.757540 0.580057
v -3.427690 2.121600 -0.317019
v -3.427690 2.121600 0.314004
v -4.254058 1.983890 -0.317019
v -4.254058 1.983890 0.314004
v -3.374470 1.802237 -0.189416
v -3.374470 1.802237 0.186401
v -4.200838 1.664528 -0.189416
v -4.200838 1.664528 0.186401
v -3.464650 2.343391 -0.001507
v -4.291018 2.205681 -0.001507
v 1.346555 0.121229 -1.549586
v 1.344690 -0.968957 -1.430660
v 1.344690 -0.968957 1.427644
v 1.425731 0.367874 -1.438425
v 1.482241 1.811330 -1.362304
v 1.482241 1.811330 1.359289
v 1.450132 1.427418 -1.438425
v 1.346555 0.121229 1.546570
v 1.425731 0.367874 1.435409
v 1.450132 1.427418 1.435409
v -1.844140 -0.968957 -1.430660
v -1.844140 -0.968957 1.427644
v -1.623516 1.806860 -1.362304
v -1.976473 0.121229 1.546570
v -1.718249 0.367874 1.435409
v -1.762791 1.384510 1.435409
v -1.976473 0.121229 -1.549586
v -1.718249 0.367874 -1.438425
v -1.623516 1.806860 1.359289
v -1.762791 1.384510 -1.438425
v 0.192276 0.588731 -1.549586
v 0.364326 0.835376 -1.438425
v 0.440663 2.276513 1.359289
v 0.352966 1.872663 -1.438425
v 0.260021 -0.501455 -1.430660
v 0.260021 -0.501456 1.427644
v 0.440663 2.276513 -1.362304
v 0.192276 0.588730 1.546570
v 0.364326 0.835375 1.435409
v 0.352966 1.872663 1.435409
vt 0.000253 0.396923
vt 0.000253 0.194899
vt 0.078620 0.186493
vt 0.078620 0.405329
vt 0.563612 0.528250
vt 0.563768 0.513754
vt 0.752565 0.514066
vt 0.744680 0.591565
vt 0.221176 0.385797
vt 0.221175 0.206024
vt 0.239945 0.199729
vt 0.239946 0.392091
vt 0.948246 0.194896
vt 0.948247 0.396920
vt 0.870803 0.405326
vt 0.870802 0.186490
vt 0.852779 0.194347
vt 0.852780 0.397469
vt 0.775248 0.397470
vt 0.775247 0.194347
vt 0.342783 0.714625
vt 0.342783 0.608936
vt 0.523956 0.608936
vt 0.523956 0.810961
vt 0.569439 0.468606
vt 0.748020 0.494937
vt 0.226119 0.423795
vt 0.207611 0.412216
vt 0.220156 0.392628
vt 0.354038 0.199729
vt 0.354038 0.376974
vt 0.108958 0.397472
vt 0.108957 0.194349
vt 0.179466 0.194349
vt 0.179466 0.397472
vt 0.197914 0.206024
vt 0.197915 0.385797
vt 0.750006 0.392090
vt 0.750005 0.199728
vt 0.571245 0.419756
vt 0.753789 0.417620
vt 0.573553 0.347888
vt 0.998677 0.214313
vt 0.958752 0.214313
vt 0.958752 0.171626
vt 0.998677 0.171626
vt 0.998677 0.043565
vt 0.958752 0.043565
vt 0.958752 0.000878
vt 0.998677 0.000878
vt 0.998677 0.128939
vt 0.958752 0.128939
vt 0.958752 0.086252
vt 0.998677 0.086252
vt 0.998677 0.257000
vt 0.958752 0.257000
vt 0.190389 0.999103
vt 0.101873 0.999103
vt 0.101873 0.900562
vt 0.190389 0.900562
vt 0.802819 0.786312
vt 0.893385 0.786312
vt 0.893385 0.828999
vt 0.802819 0.828999
vt 0.802819 0.957060
vt 0.893385 0.957060
vt 0.893385 0.999747
vt 0.802819 0.999747
vt 0.802819 0.871686
vt 0.893385 0.871686
vt 0.893385 0.914373
vt 0.802819 0.914373
vt 0.802819 0.743625
vt 0.893385 0.743625
vt 0.406291 0.999098
vt 0.317775 0.999098
vt 0.317775 0.900556
vt 0.406291 0.900556
vt 0.563506 0.000553
vt 0.744678 0.000253
vt 0.752563 0.077751
vt 0.563767 0.078065
vt 0.748019 0.096880
vt 0.569377 0.086372
vt 0.226118 0.168026
vt 0.220155 0.199193
vt 0.207610 0.179605
vt 0.571244 0.172062
vt 0.753789 0.174197
vt 0.573553 0.199728
vt 0.958752 0.511565
vt 0.958752 0.468878
vt 0.998677 0.468878
vt 0.998677 0.511565
vt 0.958752 0.340817
vt 0.958752 0.298130
vt 0.998677 0.298130
vt 0.998677 0.340817
vt 0.958752 0.426191
vt 0.958752 0.383504
vt 0.998677 0.383504
vt 0.998677 0.426191
vt 0.958752 0.554252
vt 0.998677 0.554252
vt 0.209006 0.999103
vt 0.209006 0.900562
vt 0.297522 0.900562
vt 0.297522 0.999103
vt 0.999338 0.786312
vt 0.999338 0.828999
vt 0.908772 0.828999
vt 0.908772 0.786312
vt 0.999338 0.957060
vt 0.999338 0.999747
vt 0.908772 0.999747
vt 0.908772 0.957060
vt 0.999338 0.871686
vt 0.999338 0.914373
vt 0.908772 0.914373
vt 0.908772 0.871686
vt 0.999338 0.743625
vt 0.908772 0.743625
vt 0.000253 0.999103
vt 0.000253 0.900562
vt 0.088769 0.900562
vt 0.088769 0.999103
vt 0.721322 0.895949
vt 0.721322 0.928338
vt 0.503782 0.928338
vt 0.503782 0.895949
vt 0.721322 0.954284
vt 0.503782 0.954284
vt 0.721322 0.991882
vt 0.503782 0.991882
vt 0.753711 0.928338
vt 0.758920 0.954284
vt 0.471393 0.928338
vt 0.466185 0.954284
vt 0.001094 0.823529
vt 0.115832 0.823529
vt 0.115832 0.889423
vt 0.001094 0.889423
vt 0.737350 0.740973
vt 0.737351 0.794217
vt 0.596170 0.794217
vt 0.596170 0.740973
vt 0.784060 0.726490
vt 0.784060 0.808700
vt 0.737396 0.843120
vt 0.596216 0.843120
vt 0.549461 0.808700
vt 0.549461 0.726490
vt 0.596216 0.692070
vt 0.737396 0.692070
vt 0.887957 0.575370
vt 0.828744 0.575370
vt 0.828744 0.547986
vt 0.887957 0.547986
vt 0.828744 0.523389
vt 0.887957 0.523389
vt 0.887957 0.602753
vt 0.887957 0.627350
vt 0.828744 0.627350
vt 0.828744 0.602753
vt 0.828744 0.496826
vt 0.887957 0.496826
vt 0.834966 0.670301
vt 0.857267 0.654409
vt 0.879567 0.670301
vt 0.870548 0.693185
vt 0.843985 0.693185
vt 0.459688 0.199729
vt 0.453448 0.170685
vt 0.454117 0.090251
vt 0.441937 0.078267
vt 0.446597 0.000747
vt 0.459689 0.362975
vt 0.453449 0.421135
vt 0.454159 0.477302
vt 0.441938 0.513553
vt 0.225873 0.747506
vt 0.225873 0.608936
vt 0.446667 0.549565
vt 0.220979 0.590699
vt 0.206824 0.513164
vt 0.328897 0.513366
vt 0.338158 0.569342
vt 0.000253 0.810961
vt 0.000253 0.608936
vt 0.117397 0.608936
vt 0.117397 0.778014
vt 0.231684 0.494084
vt 0.347195 0.485370
vt 0.344151 0.422414
vt 0.220976 0.001122
vt 0.338120 0.000927
vt 0.328896 0.078454
vt 0.206822 0.078657
vt 0.347173 0.093851
vt 0.231682 0.097737
vt 0.344150 0.169407
vn -0.9833 -0.1823 -0.0000
vn -0.0196 -0.1090 -0.9938
vn -0.0254 -0.1092 -0.9937
vn 0.0000 -0.1084 -0.9941
vn -0.1151 0.9934 0.0000
vn 0.9950 -0.1002 -0.0000
vn 0.9973 -0.0728 -0.0000
vn -0.2021 -0.9794 -0.0000
vn 0.0000 -1.0000 -0.0000
vn 0.0785 0.3761 -0.9232
vn 0.0689 0.3805 -0.9222
vn 0.0000 0.4109 -0.9117
vn -0.3960 0.2841 -0.8732
vn -0.1123 0.9937 0.0000
vn -0.0014 1.0000 0.0000
vn -0.9967 -0.0806 -0.0000
vn -0.4770 -0.8789 -0.0000
vn -0.8729 0.4879 0.0000
vn 0.9672 0.2539 0.0000
vn 0.9885 0.1513 0.0000
vn 0.0000 0.0000 -1.0000
vn 0.0399 0.1895 -0.9811
vn -0.0015 0.2023 -0.9793
vn 0.0343 0.1912 -0.9809
vn 1.0000 0.0000 0.0000
vn -0.5000 -0.8660 -0.0000
vn -0.5000 0.8660 0.0000
vn 0.5000 0.8660 0.0000
vn 0.5000 -0.8660 -0.0000
vn -1.0000 0.0000 0.0000
vn -0.0196 -0.1090 0.9938
vn 0.0000 -0.1084 0.9941
vn -0.0254 -0.1092 0.9937
vn 0.0785 0.3761 0.9232
vn 0.0000 0.4109 0.9117
vn 0.0689 0.3805 0.9222
vn -0.3960 0.2841 0.8732
vn -0.0000 -0.0000 1.0000
vn 0.0399 0.1895 0.9811
vn 0.0343 0.1912 0.9809
vn -0.0015 0.2023 0.9793
vn -0.5746 0.8184 0.0000
vn 0.0000 1.0000 0.0000
vn -0.9806 -0.1960 -0.0000
vn 1.0000 0.0024 0.0000
vn -0.0004 0.2962 -0.9551
vn -1.0000 -0.0024 -0.0000
vn -0.0004 0.2962 0.9551
vn -0.1339 0.8033 0.5804
vn 0.0603 -0.3617 0.9304
vn 0.0603 -0.3617 -0.9304
vn 0.1644 -0.9864 0.0000
vn -0.1339 0.8033 -0.5804
vn -0.9864 -0.1644 0.0000
vn 0.0213 0.1851 0.9825
vn 0.0116 0.1863 0.9824
vn -0.0138 0.4370 0.8994
vn 0.0665 0.3920 0.9176
vn -0.0141 -0.1082 0.9940
vn -0.0073 -0.1079 0.9941
vn 0.0213 0.1851 -0.9825
vn 0.0116 0.1863 -0.9824
vn 0.2078 0.9782 0.0000
vn -0.0138 0.4370 -0.8994
vn 0.0665 0.3920 -0.9176
vn -0.0940 -0.9956 -0.0000
vn -0.0141 -0.1082 -0.9940
vn -0.0073 -0.1079 -0.9941
vn 0.0115 -0.1074 -0.9941
vn 0.0117 -0.1074 -0.9941
vn 0.1091 -0.9940 -0.0000
vn -0.0808 0.4673 -0.8804
vn -0.0224 0.4270 -0.9040
vn -0.0013 0.1739 -0.9848
vn -0.0282 0.1858 -0.9822
vn -0.0164 0.1806 -0.9834
vn 0.0117 -0.1074 0.9941
vn 0.0115 -0.1074 0.9941
vn -0.0224 0.4270 0.9040
vn -0.0808 0.4673 0.8804
vn -0.0013 0.1739 0.9848
vn -0.0164 0.1806 0.9834
vn -0.0282 0.1858 0.9822
vn 0.0980 0.9952 0.0000
usemtl Material.001
s 1
f 3/1/1 47/2/1 51/3/1 7/4/1
f 120/5/2 119/6/3 1/7/4 5/8/4
f 4/9/5 48/10/5 55/11/5 11/12/5
f 49/13/6 5/14/6 1/15/6 45/16/6
f 46/17/7 2/18/7 12/19/7 56/20/7
f 121/21/8 120/22/8 5/23/9 49/24/9
f 119/6/10 122/25/11 2/26/12 1/7/12
f 9/27/13 10/28/13 4/29/13 11/12/13
f 137/30/14 131/31/14 11/12/15 55/11/15
f 8/32/16 52/33/16 53/34/16 9/35/16
f 9/35/17 53/34/17 54/36/17 10/37/17
f 10/37/18 54/36/18 48/10/18 4/9/18
f 45/16/19 1/15/19 2/18/19 46/17/19
f 56/20/20 12/19/20 6/38/20 50/39/20
f 125/40/21 12/41/21 2/26/21 122/25/21
f 123/42/22 6/38/23 12/41/23 125/40/24
f 17/43/25 23/44/25 24/45/25 18/46/25
f 15/47/26 21/48/26 22/49/26 16/50/26
f 13/51/27 19/52/27 20/53/27 14/54/27
f 18/46/28 24/45/28 19/52/28 13/51/28
f 16/55/29 22/56/29 23/44/29 17/43/29
f 14/54/30 20/53/30 21/48/30 15/47/30
f 25/57/21 28/58/21 27/59/21 26/60/21
f 33/61/25 39/62/25 40/63/25 34/64/25
f 31/65/26 37/66/26 38/67/26 32/68/26
f 29/69/27 35/70/27 36/71/27 30/72/27
f 34/64/28 40/63/28 35/70/28 29/69/28
f 32/73/29 38/74/29 39/62/29 33/61/29
f 30/72/30 36/71/30 37/66/30 31/65/30
f 41/75/21 44/76/21 43/77/21 42/78/21
f 121/79/31 49/80/32 45/81/32 126/82/33
f 126/82/34 45/81/35 46/83/35 127/84/36
f 53/85/37 55/11/37 48/86/37 54/87/37
f 128/88/38 127/84/38 46/83/38 56/89/38
f 124/90/39 128/88/40 56/89/41 50/39/41
f 61/91/25 62/92/25 68/93/25 67/94/25
f 59/95/26 60/96/26 66/97/26 65/98/26
f 57/99/27 58/100/27 64/101/27 63/102/27
f 62/92/28 57/99/28 63/102/28 68/93/28
f 60/103/29 61/91/29 67/94/29 66/104/29
f 58/100/30 59/95/30 65/98/30 64/101/30
f 69/105/38 70/106/38 71/107/38 72/108/38
f 77/109/25 78/110/25 84/111/25 83/112/25
f 75/113/26 76/114/26 82/115/26 81/116/26
f 73/117/27 74/118/27 80/119/27 79/120/27
f 78/110/28 73/117/28 79/120/28 84/111/28
f 76/121/29 77/109/29 83/112/29 82/122/29
f 74/118/30 75/113/30 81/116/30 80/119/30
f 85/123/38 86/124/38 87/125/38 88/126/38
f 7/4/42 51/3/42 52/33/42 8/32/42
f 89/127/43 91/128/43 92/129/43 90/130/43
f 91/128/30 93/131/30 94/132/30 92/129/30
f 93/131/9 95/133/9 96/134/9 94/132/9
f 91/128/21 89/135/21 95/136/21 93/131/21
f 90/137/38 92/129/38 94/132/38 96/138/38
f 97/139/44 98/140/44 100/141/44 99/142/44
f 103/143/15 101/144/15 102/145/15 104/146/15
f 103/143/45 108/147/45 106/148/45 101/144/45
f 101/144/46 106/149/46 105/150/46 102/145/46
f 102/145/47 105/151/47 107/152/47 104/146/47
f 104/146/48 107/153/48 108/154/48 103/143/48
f 117/155/49 118/156/49 112/157/49 110/158/49
f 112/157/50 116/159/50 114/160/50 110/158/50
f 109/161/51 113/162/51 115/163/51 111/164/51
f 115/165/52 113/166/52 114/160/52 116/159/52
f 109/161/53 111/164/53 118/156/53 117/155/53
f 112/167/54 118/168/54 111/169/54 115/170/54 116/171/54
f 141/172/55 148/173/56 128/88/40 124/90/39
f 148/173/38 147/174/38 127/84/38 128/88/38
f 146/175/57 126/82/34 127/84/36 147/174/58
f 144/176/59 121/79/31 126/82/33 146/175/60
f 145/177/61 123/42/22 125/40/24 142/178/62
f 142/178/21 125/40/21 122/25/21 140/179/21
f 50/39/15 6/38/15 123/42/63 124/90/63
f 139/180/64 140/179/65 122/25/11 119/6/10
f 144/181/66 143/182/66 120/22/8 121/21/8
f 143/183/67 139/180/68 119/6/3 120/5/2
f 3/184/4 7/185/4 135/186/69 129/187/70
f 47/188/9 3/189/9 129/190/71 130/191/71
f 7/185/12 8/192/12 136/193/72 135/186/73
f 9/27/21 138/194/21 136/193/21 8/192/21
f 11/12/74 131/31/75 138/194/76 9/27/74
f 47/195/32 130/196/77 132/197/78 51/198/32
f 51/198/35 132/197/79 133/199/80 52/200/35
f 53/85/38 52/200/38 133/199/38 134/201/38
f 55/11/81 53/85/81 134/201/82 137/30/83
f 141/172/84 145/177/84 131/31/14 137/30/14
f 124/90/63 123/42/63 145/177/84 141/172/84
f 129/187/70 135/186/69 139/180/68 143/183/67
f 130/191/71 129/190/71 143/182/66 144/181/66
f 135/186/73 136/193/72 140/179/65 139/180/64
f 138/194/21 142/178/21 140/179/21 136/193/21
f 131/31/75 145/177/61 142/178/62 138/194/76
f 130/196/77 144/176/59 146/175/60 132/197/78
f 132/197/79 146/175/57 147/174/58 133/199/80
f 134/201/38 133/199/38 147/174/38 148/173/38
f 137/30/83 134/201/82 148/173/56 141/172/55
